<?xml version="1.0" encoding="UTF-8"?>
<svg id="Layer_2" data-name="Layer 2" xmlns="http://www.w3.org/2000/svg" xmlns:xlink="http://www.w3.org/1999/xlink" viewBox="0 0 275.63 235.71">
  <defs>
    <style>
      .cls-1 {
        fill: #433cff;
      }

      .cls-2 {
        fill: url(#linear-gradient);
      }
    </style>
    <linearGradient id="linear-gradient" x1="91.01" y1="121.29" x2="193.83" y2="18.47" gradientUnits="userSpaceOnUse">
      <stop offset="0" stop-color="#4a2eff"/>
      <stop offset=".52" stop-color="#00cdff"/>
      <stop offset="1" stop-color="#00ff65"/>
    </linearGradient>
  </defs>
  <g id="Layer_1-2" data-name="Layer 1">
    <g>
      <path class="cls-2" d="M201.14,127.74l-24.24-39.65c-.15-.24-.06-.56.2-.69,15.02-7.62,25.32-23.21,25.32-41.21,0-25.51-20.68-46.19-46.19-46.19-.26,0-.52,0-.78,0-.26,0-.52,0-.78,0h-59.22c-12.3,0-22.27,9.97-22.27,22.27v73.86c0,4.84,1.98,9.47,5.49,12.81l32.88,31.33c1.61,1.53,4.28.62,4.61-1.57,3-19.89,5.01-47.57,5.79-55.02.34-3.25.52-6.51.54-9.77l.03-6.58h-.77c-.77,0-1.38-.63-1.38-1.4v-1.48s-.51,0-.51,0c-.53,0-.98-.39-1.06-.91l-4.03-24.95,10.05.05,1.38,10.05,4.31.02-1.38-10.05,11.48.06-1.49,10.04,4.31.02,1.49-10.04,10.05.05-4.28,24.91c-.09.52-.54.9-1.07.9h-.52s0,1.48,0,1.48c0,.77-.63,1.38-1.39,1.38h-.77s-.03,6.58-.03,6.58c-.02,3.26.13,6.53.44,9.78.7,7.38,2.39,34.49,5.13,54.35.23,1.67,1.65,2.91,3.33,2.91h37.87c6.84,0,11.04-7.49,7.47-13.33Z"/>
      <g>
        <path class="cls-1" d="M55.12,199.52c2.45-3.59,3.67-8.1,3.67-13.54v-1.61c0-5.5-1.21-10.07-3.62-13.69-2.42-3.62-5.87-6.36-10.37-8.21-4.5-1.85-9.8-2.77-15.91-2.77H0v74.09h16.51v-23.56h12.03l16.05,23.56h19.13l-18.77-26.31c4.36-1.78,7.75-4.43,10.16-7.96ZM16.51,173.7h13.69c2.42,0,4.51.49,6.29,1.46,1.78.97,3.15,2.35,4.13,4.13.97,1.78,1.46,3.84,1.46,6.19s-.49,4.41-1.46,6.19c-.97,1.78-2.35,3.16-4.13,4.13-1.78.97-3.88,1.46-6.29,1.46h-13.69v-23.56Z"/>
        <path class="cls-1" d="M116.67,185.17c-2.62-2.62-5.79-4.68-9.51-6.19-3.72-1.51-7.97-2.26-12.73-2.26s-8.83.75-12.58,2.26c-3.76,1.51-6.96,3.57-9.61,6.19-2.65,2.62-4.67,5.65-6.04,9.11-1.38,3.46-2.06,7.1-2.06,10.92v2.31c0,3.76.67,7.33,2.01,10.72,1.34,3.39,3.3,6.39,5.89,9.01,2.58,2.62,5.75,4.68,9.51,6.19,3.76,1.51,8.05,2.27,12.89,2.27s9.23-.76,12.99-2.27c3.76-1.51,6.93-3.57,9.51-6.19,2.58-2.62,4.55-5.62,5.89-9.01,1.34-3.39,2.01-6.96,2.01-10.72v-2.31c0-3.83-.7-7.47-2.11-10.92-1.41-3.46-3.42-6.49-6.04-9.11ZM107.06,214.47c-1.11,2.42-2.7,4.3-4.78,5.64-2.08,1.34-4.7,2.01-7.85,2.01s-5.6-.67-7.75-2.01c-2.15-1.34-3.76-3.22-4.83-5.64-1.07-2.42-1.61-5.1-1.61-8.05,0-3.15.55-5.92,1.66-8.31,1.11-2.38,2.73-4.28,4.88-5.69,2.15-1.41,4.7-2.11,7.65-2.11s5.59.7,7.7,2.11,3.74,3.31,4.88,5.69c1.14,2.38,1.71,5.15,1.71,8.31,0,2.95-.55,5.64-1.66,8.05Z"/>
        <path class="cls-1" d="M181.2,185.17c-2.62-2.62-5.79-4.68-9.51-6.19-3.72-1.51-7.97-2.26-12.73-2.26s-8.83.75-12.58,2.26c-3.76,1.51-6.96,3.57-9.61,6.19-2.65,2.62-4.67,5.65-6.04,9.11-1.38,3.46-2.06,7.1-2.06,10.92v2.31c0,3.76.67,7.33,2.01,10.72,1.34,3.39,3.3,6.39,5.89,9.01,2.58,2.62,5.75,4.68,9.51,6.19,3.76,1.51,8.05,2.27,12.89,2.27s9.23-.76,12.99-2.27c3.76-1.51,6.93-3.57,9.51-6.19,2.58-2.62,4.55-5.62,5.89-9.01,1.34-3.39,2.01-6.96,2.01-10.72v-2.31c0-3.83-.7-7.47-2.11-10.92-1.41-3.46-3.42-6.49-6.04-9.11ZM171.59,214.47c-1.11,2.42-2.7,4.3-4.78,5.64-2.08,1.34-4.7,2.01-7.85,2.01s-5.6-.67-7.75-2.01c-2.15-1.34-3.76-3.22-4.83-5.64-1.07-2.42-1.61-5.1-1.61-8.05,0-3.15.55-5.92,1.66-8.31,1.11-2.38,2.73-4.28,4.88-5.69,2.15-1.41,4.7-2.11,7.65-2.11s5.59.7,7.7,2.11,3.74,3.31,4.88,5.69c1.14,2.38,1.71,5.15,1.71,8.31,0,2.95-.55,5.64-1.66,8.05Z"/>
        <polygon class="cls-1" points="249.66 178.63 232.75 178.63 212.71 204.86 212.71 160.31 196.61 160.31 196.61 233.8 212.71 233.8 212.71 208.03 218.05 208.03 235.46 233.8 253.58 233.8 231.5 202.15 249.66 178.63"/>
        <path class="cls-1" d="M265.76,173.19c3.02,0,5.25-.79,6.69-2.37,1.44-1.58,2.16-3.57,2.16-5.99s-.72-4.51-2.16-6.09c-1.44-1.58-3.67-2.37-6.69-2.37s-5.25.79-6.69,2.37c-1.44,1.58-2.16,3.61-2.16,6.09s.72,4.41,2.16,5.99c1.44,1.58,3.67,2.37,6.69,2.37Z"/>
        <polygon class="cls-1" points="259.52 178.63 252.17 178.63 252.17 190.51 259.52 190.51 259.52 233.8 275.63 233.8 275.63 190.51 275.63 178.63 259.52 178.63"/>
      </g>
    </g>
  </g>
</svg>